<?xml version="1.0" encoding="UTF-8" standalone="no"?>
<svg
   xmlns:dc="http://purl.org/dc/elements/1.1/"
   xmlns:cc="http://creativecommons.org/ns#"
   xmlns:rdf="http://www.w3.org/1999/02/22-rdf-syntax-ns#"
   xmlns:svg="http://www.w3.org/2000/svg"
   xmlns="http://www.w3.org/2000/svg"
   id="svg4"
   version="1.1"
   viewBox="609.4 645.8 93.2 100">
  <metadata
     id="metadata10">
    <rdf:RDF>
      <cc:Work
         rdf:about="">
        <dc:format>image/svg+xml</dc:format>
        <dc:type
           rdf:resource="http://purl.org/dc/dcmitype/StillImage" />
      </cc:Work>
    </rdf:RDF>
  </metadata>
  <defs
     id="defs8" />
  <path
     id="path2"
     d="M696.2 745.8H616c-3.7 0-6.6-2.9-6.6-6.6v-26.7c0-3.7 2.9-6.6 6.6-6.6 3.7 0 6.6 2.9 6.6 6.6v20h66.7v-20c0-3.7 2.9-6.6 6.6-6.6 3.7 0 6.6 2.9 6.6 6.6v26.7c.3 3.7-2.6 6.6-6.3 6.6zm-36-38.3c-2.3 2.1-6 2.1-8.4 0L631 688.4c-2.3-2.1-2.3-5.4 0-7.6s6-2.1 8.4 0l9.9 9.1v-37.5c0-3.7 2.9-6.6 6.6-6.6s6.6 2.9 6.6 6.6v37.4l9.9-9.1c2.3-2.1 6-2.1 8.4 0 2.3 2.1 2.3 5.4 0 7.6l-20.6 19.2z"
     fill="#fff" />
</svg>
